<svg width="40" height="40" viewBox="0 0 40 40" fill="none" xmlns="http://www.w3.org/2000/svg">
<rect width="39.9996" height="39.9996" rx="6" fill="#D9D9D9"/>
<rect width="39.9996" height="39.9996" rx="6" fill="url(#paint0_radial_162_10369)"/>
<path d="M3.59699 16.9224L2.82853 15.0506L2.06792 16.9224M20.5116 16.1782C20.3563 16.2684 20.1768 16.2762 19.9556 16.2762H18.5983V15.2302H19.9799C20.176 15.2302 20.3806 15.238 20.5116 15.3118C20.659 15.3768 20.7484 15.5243 20.7484 15.7289C20.7484 15.9328 20.6582 16.1045 20.5116 16.1782ZM30.2396 16.9224L29.4633 15.0506L28.6948 16.9224H30.2396ZM12.1158 18.9494H10.9632L10.9553 15.2702L9.32824 18.9494H8.34728L6.71236 15.2702V18.9494H4.43131L3.99768 17.9033H1.66801L1.23438 18.9494H0.0166195L2.0193 14.2571H3.68716L5.60045 18.6961V14.2571H7.43141L8.90324 17.4375L10.252 14.2571H12.1158V18.9494ZM16.6936 18.9494H12.9494V14.2571H16.6936V15.238H14.0691V16.0802H16.6364V17.0369H14.0778V17.977H16.7023V18.9501H16.6936V18.9494ZM21.9826 15.5156C21.9826 16.2676 21.4839 16.6518 21.1899 16.7663C21.4353 16.8565 21.6478 17.0282 21.7458 17.1584C21.9011 17.3952 21.934 17.5999 21.934 18.017V18.9407H20.8056L20.7978 18.3518C20.7978 18.0656 20.8221 17.6649 20.6182 17.436C20.4543 17.2721 20.2011 17.2313 19.8004 17.2313H18.5983V18.9399H17.4786V14.2555H20.0615C20.6339 14.2555 21.0589 14.272 21.4188 14.4759C21.7701 14.6899 21.9826 14.9926 21.9826 15.5156ZM23.7736 18.9494H22.6288V14.2571H23.7736V18.9494ZM37.0577 18.9494H35.4713L33.3456 15.4262V18.9494H31.0645L30.6309 17.9033H28.3012L27.8762 18.9494H26.5596C26.0115 18.9494 25.3254 18.827 24.9326 18.4342C24.5405 18.0335 24.3358 17.494 24.3358 16.644C24.3358 15.9493 24.4581 15.3118 24.9404 14.813C25.3003 14.4367 25.8727 14.2649 26.6412 14.2649H27.7288V15.2702H26.6663C26.2577 15.2702 26.0288 15.3274 25.7998 15.5478C25.6116 15.7438 25.4807 16.1202 25.4807 16.6103C25.4807 17.1168 25.5787 17.4768 25.7912 17.7136C25.9629 17.9018 26.2821 17.959 26.5761 17.959H27.0827L28.6603 14.272H30.3447L32.2415 18.711V14.2555H33.9501L35.9207 17.5254V14.2555H37.0733L37.0577 18.9494ZM0.000152588 19.8652H1.91345L2.34707 18.8192H3.31156L3.74519 19.8652H7.51375V19.0725L7.84857 19.8739H9.80264L10.1375 19.0646V19.8739H19.5055L19.4977 18.1652H19.6773C19.8082 18.1731 19.8412 18.1817 19.8412 18.3942V19.8817H24.6887V19.481C25.0808 19.6935 25.6861 19.8817 26.4875 19.8817H28.5231L28.9567 18.8357H29.9212L30.3462 19.8817H34.2787V18.8929L34.8754 19.8817H38.0559V13.3334H34.9413V14.1097L34.5076 13.3334H31.3115V14.1097L30.9108 13.3334H26.5941C25.8751 13.3334 25.2368 13.4314 24.7224 13.7176V13.3334H21.7388V13.7176C21.4118 13.4314 20.9703 13.3334 20.4716 13.3334H9.57289L8.84521 15.0255L8.09322 13.3334H4.66027V14.1097L4.28389 13.3334H1.35749L0.000152588 16.4315V19.8652Z" fill="white"/>
<path d="M39.9899 23.3311H37.9464C37.7417 23.3311 37.6029 23.339 37.4885 23.4127C37.374 23.4864 37.3246 23.6009 37.3246 23.7475C37.3246 23.9271 37.4226 24.0416 37.57 24.0988C37.6845 24.1396 37.8154 24.156 38.0036 24.156L38.6082 24.1725C39.2214 24.189 39.6299 24.2948 39.8832 24.5489C39.9326 24.5818 39.9569 24.6226 39.9899 24.6634M39.9899 26.43C39.7201 26.8307 39.1885 27.0268 38.4694 27.0268H36.3029V26.0215H38.4608C38.6733 26.0215 38.8286 25.9972 38.9187 25.907C39.0003 25.8333 39.0497 25.7274 39.0497 25.6043C39.0497 25.4655 38.9924 25.3589 38.9109 25.2938C38.8293 25.2201 38.7149 25.1872 38.5188 25.1872C37.4642 25.1542 36.1484 25.2201 36.1484 23.7318C36.1484 23.0535 36.582 22.3337 37.759 22.3337H39.9906V21.4014H37.9142C37.2846 21.4014 36.8353 21.5488 36.5083 21.7856V21.4014H33.4345C32.9436 21.4014 32.3633 21.5237 32.0936 21.7856V21.4014H26.6078V21.7856C26.1742 21.4665 25.4386 21.4014 25.0952 21.4014H21.4819V21.7856C21.1384 21.4508 20.37 21.4014 19.9042 21.4014H15.8573L14.9336 22.4066L14.0671 21.4014H8.01749V27.9497H13.9526L14.9093 26.928L15.8087 27.9497H19.4627V26.4128H19.8227C20.3049 26.4206 20.8773 26.4049 21.3839 26.1838V27.9497H24.4004V26.2411H24.5479C24.7361 26.2411 24.7525 26.2489 24.7525 26.4371V27.9497H33.9167C34.497 27.9497 35.1102 27.8023 35.4458 27.5325V27.9497H38.3565C38.9611 27.9497 39.55 27.8681 40.0001 27.647V26.4292H39.9899V26.43ZM35.5179 24.5497C35.7383 24.7786 35.8528 25.0649 35.8528 25.5471C35.8528 26.561 35.2231 27.0268 34.0869 27.0268H31.9038V26.0215H34.0783C34.2908 26.0215 34.4382 25.9972 34.5362 25.907C34.6099 25.8333 34.6671 25.7274 34.6671 25.6043C34.6671 25.4655 34.6099 25.3589 34.5283 25.2938C34.4468 25.2201 34.3237 25.1872 34.1277 25.1872C33.0816 25.1542 31.7651 25.2201 31.7651 23.7318C31.7651 23.0535 32.1901 22.3337 33.367 22.3337H35.6152V23.3311H33.5552C33.3506 23.3311 33.2204 23.339 33.1059 23.4127C32.9836 23.4864 32.9342 23.6009 32.9342 23.7475C32.9342 23.9271 33.0408 24.0416 33.1796 24.0988C33.2941 24.1396 33.4251 24.156 33.6133 24.156L34.2178 24.1725C34.8475 24.1898 35.2647 24.2956 35.5179 24.5497ZM25.3971 24.2635C25.2497 24.3536 25.0623 24.3615 24.8411 24.3615H23.4759V23.3068H24.8576C25.0536 23.3068 25.2583 23.3147 25.3892 23.3884C25.5367 23.4621 25.6182 23.6087 25.6182 23.8134C25.6261 24.0102 25.5359 24.1733 25.3971 24.2635ZM26.0754 24.8437C26.3286 24.9339 26.5333 25.097 26.6235 25.2358C26.7787 25.4648 26.803 25.6773 26.8117 26.0944V27.0268H25.6833V26.4379C25.6833 26.1517 25.7076 25.7345 25.5037 25.522C25.3398 25.3503 25.0866 25.3173 24.678 25.3173H23.4759V27.0338H22.3476V22.3415H24.9391C25.5029 22.3415 25.9201 22.3659 26.2879 22.5619C26.6392 22.7744 26.8681 23.0684 26.8681 23.6079C26.8689 24.345 26.3702 24.7292 26.0754 24.8437ZM27.4899 22.3337H31.2342V23.3068H28.6097V24.1568H31.177V25.1135H28.6097V26.0458L31.2342 26.0536V27.0268H27.4899V22.3337ZM19.9199 24.5003H18.4732V23.3068H19.9364C20.3449 23.3068 20.6233 23.4707 20.6233 23.8792C20.6233 24.2878 20.3527 24.5003 19.9199 24.5003ZM17.3526 26.601L15.6275 24.6877L17.3526 22.8403V26.601ZM12.9058 26.0458H10.1511V25.1135H12.6117V24.1568H10.1511V23.3068H12.963L14.1894 24.672L12.9058 26.0458ZM21.8246 23.8792C21.8246 25.1872 20.8514 25.4491 19.8705 25.4491H18.4724V27.0268H16.2893L14.9077 25.4734L13.4688 27.0268H9.02981V22.3345H13.5425L14.9242 23.8714L16.3544 22.3345H19.9348C20.8271 22.3337 21.8246 22.5791 21.8246 23.8792Z" fill="white"/>
<rect width="39.9996" height="39.9996" rx="6" fill="#D9D9D9"/>
<rect width="39.9996" height="39.9996" rx="6" fill="url(#paint1_radial_162_10369)"/>
<path d="M3.59699 16.9224L2.82853 15.0506L2.06792 16.9224M20.5116 16.1782C20.3563 16.2684 20.1768 16.2762 19.9556 16.2762H18.5983V15.2302H19.9799C20.176 15.2302 20.3806 15.238 20.5116 15.3118C20.659 15.3768 20.7484 15.5243 20.7484 15.7289C20.7484 15.9328 20.6582 16.1045 20.5116 16.1782ZM30.2396 16.9224L29.4633 15.0506L28.6948 16.9224H30.2396ZM12.1158 18.9494H10.9632L10.9553 15.2702L9.32824 18.9494H8.34728L6.71236 15.2702V18.9494H4.43131L3.99768 17.9033H1.66801L1.23438 18.9494H0.0166195L2.0193 14.2571H3.68716L5.60045 18.6961V14.2571H7.43141L8.90324 17.4375L10.252 14.2571H12.1158V18.9494ZM16.6936 18.9494H12.9494V14.2571H16.6936V15.238H14.0691V16.0802H16.6364V17.0369H14.0778V17.977H16.7023V18.9501H16.6936V18.9494ZM21.9826 15.5156C21.9826 16.2676 21.4839 16.6518 21.1899 16.7663C21.4353 16.8565 21.6478 17.0282 21.7458 17.1584C21.9011 17.3952 21.934 17.5999 21.934 18.017V18.9407H20.8056L20.7978 18.3518C20.7978 18.0656 20.8221 17.6649 20.6182 17.436C20.4543 17.2721 20.2011 17.2313 19.8004 17.2313H18.5983V18.9399H17.4786V14.2555H20.0615C20.6339 14.2555 21.0589 14.272 21.4188 14.4759C21.7701 14.6899 21.9826 14.9926 21.9826 15.5156ZM23.7736 18.9494H22.6288V14.2571H23.7736V18.9494ZM37.0577 18.9494H35.4713L33.3456 15.4262V18.9494H31.0645L30.6309 17.9033H28.3012L27.8762 18.9494H26.5596C26.0115 18.9494 25.3254 18.827 24.9326 18.4342C24.5405 18.0335 24.3358 17.494 24.3358 16.644C24.3358 15.9493 24.4581 15.3118 24.9404 14.813C25.3003 14.4367 25.8727 14.2649 26.6412 14.2649H27.7288V15.2702H26.6663C26.2577 15.2702 26.0288 15.3274 25.7998 15.5478C25.6116 15.7438 25.4807 16.1202 25.4807 16.6103C25.4807 17.1168 25.5787 17.4768 25.7912 17.7136C25.9629 17.9018 26.2821 17.959 26.5761 17.959H27.0827L28.6603 14.272H30.3447L32.2415 18.711V14.2555H33.9501L35.9207 17.5254V14.2555H37.0733L37.0577 18.9494ZM0.000152588 19.8652H1.91345L2.34707 18.8192H3.31156L3.74519 19.8652H7.51375V19.0725L7.84857 19.8739H9.80264L10.1375 19.0646V19.8739H19.5055L19.4977 18.1652H19.6773C19.8082 18.1731 19.8412 18.1817 19.8412 18.3942V19.8817H24.6887V19.481C25.0808 19.6935 25.6861 19.8817 26.4875 19.8817H28.5231L28.9567 18.8357H29.9212L30.3462 19.8817H34.2787V18.8929L34.8754 19.8817H38.0559V13.3334H34.9413V14.1097L34.5076 13.3334H31.3115V14.1097L30.9108 13.3334H26.5941C25.8751 13.3334 25.2368 13.4314 24.7224 13.7176V13.3334H21.7388V13.7176C21.4118 13.4314 20.9703 13.3334 20.4716 13.3334H9.57289L8.84521 15.0255L8.09322 13.3334H4.66027V14.1097L4.28389 13.3334H1.35749L0.000152588 16.4315V19.8652Z" fill="white"/>
<path d="M39.9899 23.3311H37.9464C37.7417 23.3311 37.6029 23.339 37.4885 23.4127C37.374 23.4864 37.3246 23.6009 37.3246 23.7475C37.3246 23.9271 37.4226 24.0416 37.57 24.0988C37.6845 24.1396 37.8154 24.156 38.0036 24.156L38.6082 24.1725C39.2214 24.189 39.6299 24.2948 39.8832 24.5489C39.9326 24.5818 39.9569 24.6226 39.9899 24.6634M39.9899 26.43C39.7201 26.8307 39.1885 27.0268 38.4694 27.0268H36.3029V26.0215H38.4608C38.6733 26.0215 38.8286 25.9972 38.9187 25.907C39.0003 25.8333 39.0497 25.7274 39.0497 25.6043C39.0497 25.4655 38.9924 25.3589 38.9109 25.2938C38.8293 25.2201 38.7149 25.1872 38.5188 25.1872C37.4642 25.1542 36.1484 25.2201 36.1484 23.7318C36.1484 23.0535 36.582 22.3337 37.759 22.3337H39.9906V21.4014H37.9142C37.2846 21.4014 36.8353 21.5488 36.5083 21.7856V21.4014H33.4345C32.9436 21.4014 32.3633 21.5237 32.0936 21.7856V21.4014H26.6078V21.7856C26.1742 21.4665 25.4386 21.4014 25.0952 21.4014H21.4819V21.7856C21.1384 21.4508 20.37 21.4014 19.9042 21.4014H15.8573L14.9336 22.4066L14.0671 21.4014H8.01749V27.9497H13.9526L14.9093 26.928L15.8087 27.9497H19.4627V26.4128H19.8227C20.3049 26.4206 20.8773 26.4049 21.3839 26.1838V27.9497H24.4004V26.2411H24.5479C24.7361 26.2411 24.7525 26.2489 24.7525 26.4371V27.9497H33.9167C34.497 27.9497 35.1102 27.8023 35.4458 27.5325V27.9497H38.3565C38.9611 27.9497 39.55 27.8681 40.0001 27.647V26.4292H39.9899V26.43ZM35.5179 24.5497C35.7383 24.7786 35.8528 25.0649 35.8528 25.5471C35.8528 26.561 35.2231 27.0268 34.0869 27.0268H31.9038V26.0215H34.0783C34.2908 26.0215 34.4382 25.9972 34.5362 25.907C34.6099 25.8333 34.6671 25.7274 34.6671 25.6043C34.6671 25.4655 34.6099 25.3589 34.5283 25.2938C34.4468 25.2201 34.3237 25.1872 34.1277 25.1872C33.0816 25.1542 31.7651 25.2201 31.7651 23.7318C31.7651 23.0535 32.1901 22.3337 33.367 22.3337H35.6152V23.3311H33.5552C33.3506 23.3311 33.2204 23.339 33.1059 23.4127C32.9836 23.4864 32.9342 23.6009 32.9342 23.7475C32.9342 23.9271 33.0408 24.0416 33.1796 24.0988C33.2941 24.1396 33.4251 24.156 33.6133 24.156L34.2178 24.1725C34.8475 24.1898 35.2647 24.2956 35.5179 24.5497ZM25.3971 24.2635C25.2497 24.3536 25.0623 24.3615 24.8411 24.3615H23.4759V23.3068H24.8576C25.0536 23.3068 25.2583 23.3147 25.3892 23.3884C25.5367 23.4621 25.6182 23.6087 25.6182 23.8134C25.6261 24.0102 25.5359 24.1733 25.3971 24.2635ZM26.0754 24.8437C26.3286 24.9339 26.5333 25.097 26.6235 25.2358C26.7787 25.4648 26.803 25.6773 26.8117 26.0944V27.0268H25.6833V26.4379C25.6833 26.1517 25.7076 25.7345 25.5037 25.522C25.3398 25.3503 25.0866 25.3173 24.678 25.3173H23.4759V27.0338H22.3476V22.3415H24.9391C25.5029 22.3415 25.9201 22.3659 26.2879 22.5619C26.6392 22.7744 26.8681 23.0684 26.8681 23.6079C26.8689 24.345 26.3702 24.7292 26.0754 24.8437ZM27.4899 22.3337H31.2342V23.3068H28.6097V24.1568H31.177V25.1135H28.6097V26.0458L31.2342 26.0536V27.0268H27.4899V22.3337ZM19.9199 24.5003H18.4732V23.3068H19.9364C20.3449 23.3068 20.6233 23.4707 20.6233 23.8792C20.6233 24.2878 20.3527 24.5003 19.9199 24.5003ZM17.3526 26.601L15.6275 24.6877L17.3526 22.8403V26.601ZM12.9058 26.0458H10.1511V25.1135H12.6117V24.1568H10.1511V23.3068H12.963L14.1894 24.672L12.9058 26.0458ZM21.8246 23.8792C21.8246 25.1872 20.8514 25.4491 19.8705 25.4491H18.4724V27.0268H16.2893L14.9077 25.4734L13.4688 27.0268H9.02981V22.3345H13.5425L14.9242 23.8714L16.3544 22.3345H19.9348C20.8271 22.3337 21.8246 22.5791 21.8246 23.8792Z" fill="white"/>
<defs>
<radialGradient id="paint0_radial_162_10369" cx="0" cy="0" r="1" gradientUnits="userSpaceOnUse" gradientTransform="translate(58.464 7.86541) scale(37.3168 37.4008)">
<stop stop-color="#9DD5F6"/>
<stop offset="0.0711" stop-color="#98D3F5"/>
<stop offset="0.1575" stop-color="#89CEF3"/>
<stop offset="0.2516" stop-color="#70C6EF"/>
<stop offset="0.3514" stop-color="#4EBBEA"/>
<stop offset="0.4546" stop-color="#23ADE3"/>
<stop offset="0.5" stop-color="#0DA6E0"/>
<stop offset="1" stop-color="#2E77BC"/>
</radialGradient>
<radialGradient id="paint1_radial_162_10369" cx="0" cy="0" r="1" gradientUnits="userSpaceOnUse" gradientTransform="translate(58.464 7.86541) scale(37.3168 37.4008)">
<stop stop-color="#9DD5F6"/>
<stop offset="0.0711" stop-color="#98D3F5"/>
<stop offset="0.1575" stop-color="#89CEF3"/>
<stop offset="0.2516" stop-color="#70C6EF"/>
<stop offset="0.3514" stop-color="#4EBBEA"/>
<stop offset="0.4546" stop-color="#23ADE3"/>
<stop offset="0.5" stop-color="#0DA6E0"/>
<stop offset="1" stop-color="#2E77BC"/>
</radialGradient>
</defs>
</svg>
