<svg width="40" height="40" viewBox="0 0 40 40" fill="none" xmlns="http://www.w3.org/2000/svg">
<rect y="0.000366211" width="39.9996" height="39.9996" rx="6" fill="#D9D9D9"/>
<rect y="0.000366211" width="39.9996" height="39.9996" rx="6" fill="#00ACEC"/>
<path d="M3.59686 16.9225L2.82841 15.0508L2.0678 16.9225M20.5115 16.1783C20.3562 16.2685 20.1766 16.2764 19.9555 16.2764H18.5982V15.2303H19.9798C20.1759 15.2303 20.3805 15.2382 20.5115 15.3119C20.6589 15.377 20.7483 15.5244 20.7483 15.729C20.7483 15.9329 20.6581 16.1046 20.5115 16.1783ZM30.2395 16.9225L29.4632 15.0508L28.6947 16.9225H30.2395ZM12.1157 18.9495H10.963L10.9552 15.2703L9.32812 18.9495H8.34716L6.71224 15.2703V18.9495H4.43119L3.99756 17.9034H1.66789L1.23426 18.9495H0.0164974L2.01918 14.2572H3.68704L5.60033 18.6962V14.2572H7.43129L8.90311 17.4377L10.2518 14.2572H12.1157V18.9495ZM16.6935 18.9495H12.9493V14.2572H16.6935V15.2382H14.069V16.0803H16.6363V17.037H14.0776V17.9772H16.7021V18.9503H16.6935V18.9495ZM21.9825 15.5157C21.9825 16.2677 21.4838 16.652 21.1897 16.7664C21.4352 16.8566 21.6477 17.0283 21.7457 17.1585C21.901 17.3953 21.9339 17.6 21.9339 18.0171V18.9409H20.8055L20.7977 18.352C20.7977 18.0658 20.822 17.6651 20.6181 17.4361C20.4542 17.2722 20.201 17.2314 19.8003 17.2314H18.5982V18.9401H17.4784V14.2556H20.0614C20.6338 14.2556 21.0588 14.2721 21.4187 14.476C21.77 14.6901 21.9825 14.9927 21.9825 15.5157ZM23.7735 18.9495H22.6286V14.2572H23.7735V18.9495ZM37.0575 18.9495H35.4712L33.3454 15.4264V18.9495H31.0644L30.6307 17.9034H28.3011L27.8761 18.9495H26.5595C26.0114 18.9495 25.3253 18.8272 24.9324 18.4343C24.5404 18.0336 24.3357 17.4941 24.3357 16.6441C24.3357 15.9494 24.458 15.3119 24.9403 14.8132C25.3002 14.4368 25.8726 14.2651 26.6411 14.2651H27.7287V15.2703H26.6662C26.2576 15.2703 26.0287 15.3276 25.7997 15.5479C25.6115 15.7439 25.4805 16.1203 25.4805 16.6104C25.4805 17.117 25.5786 17.4769 25.7911 17.7137C25.9628 17.9019 26.2819 17.9591 26.576 17.9591H27.0825L28.6602 14.2721H30.3445L32.2414 18.7111V14.2556H33.95L35.9205 17.5255V14.2556H37.0732L37.0575 18.9495ZM3.05176e-05 19.8654H1.91332L2.34695 18.8193H3.31144L3.74507 19.8654H7.51363V19.0726L7.84845 19.874H9.80252L10.1373 19.0647V19.874H19.5054L19.4976 18.1653H19.6771C19.8081 18.1732 19.841 18.1818 19.841 18.3943V19.8818H24.6886V19.4811C25.0806 19.6936 25.686 19.8818 26.4874 19.8818H28.523L28.9566 18.8358H29.9211L30.3461 19.8818H34.2786V18.893L34.8753 19.8818H38.0557V13.3335H34.9411V14.1098L34.5075 13.3335H31.3114V14.1098L30.9107 13.3335H26.594C25.875 13.3335 25.2367 13.4315 24.7223 13.7177V13.3335H21.7386V13.7177C21.4117 13.4315 20.9702 13.3335 20.4715 13.3335H9.57277L8.84509 15.0257L8.0931 13.3335H4.66015V14.1098L4.28377 13.3335H1.35737L3.05176e-05 16.4316V19.8654Z" fill="#00ACEC"/>
<path d="M39.9897 23.3312H37.9463C37.7416 23.3312 37.6028 23.3391 37.4883 23.4128C37.3739 23.4865 37.3245 23.601 37.3245 23.7476C37.3245 23.9272 37.4225 24.0417 37.5699 24.0989C37.6844 24.1397 37.8153 24.1562 38.0035 24.1562L38.6081 24.1726C39.2213 24.1891 39.6298 24.295 39.8831 24.549C39.9325 24.5819 39.9568 24.6227 39.9897 24.6635M39.9897 26.4302C39.72 26.8308 39.1884 27.0269 38.4693 27.0269H36.3027V26.0216H38.4607C38.6732 26.0216 38.8284 25.9973 38.9186 25.9071C39.0002 25.8334 39.0496 25.7276 39.0496 25.6045C39.0496 25.4657 38.9923 25.359 38.9108 25.2939C38.8292 25.2202 38.7147 25.1873 38.5187 25.1873C37.464 25.1544 36.1483 25.2202 36.1483 23.7319C36.1483 23.0537 36.5819 22.3338 37.7589 22.3338H39.9905V21.4015H37.9141C37.2845 21.4015 36.8352 21.5489 36.5082 21.7857V21.4015H33.4344C32.9435 21.4015 32.3632 21.5238 32.0935 21.7857V21.4015H26.6077V21.7857C26.174 21.4666 25.4385 21.4015 25.0951 21.4015H21.4818V21.7857C21.1383 21.4509 20.3699 21.4015 19.9041 21.4015H15.8572L14.9334 22.4068L14.067 21.4015H8.01736V27.9498H13.9525L14.9091 26.9281L15.8085 27.9498H19.4626V26.4129H19.8225C20.3048 26.4207 20.8772 26.4051 21.3838 26.1839V27.9498H24.4003V26.2412H24.5477C24.7359 26.2412 24.7524 26.249 24.7524 26.4372V27.9498H33.9166C34.4969 27.9498 35.1101 27.8024 35.4457 27.5327V27.9498H38.3564C38.961 27.9498 39.5498 27.8683 39.9999 27.6471V26.4294H39.9897V26.4302ZM35.5178 24.5498C35.7381 24.7788 35.8526 25.065 35.8526 25.5472C35.8526 26.5611 35.223 27.0269 34.0868 27.0269H31.9037V26.0216H34.0781C34.2906 26.0216 34.4381 25.9973 34.5361 25.9071C34.6098 25.8334 34.667 25.7276 34.667 25.6045C34.667 25.4657 34.6098 25.359 34.5282 25.2939C34.4467 25.2202 34.3236 25.1873 34.1275 25.1873C33.0815 25.1544 31.7649 25.2202 31.7649 23.7319C31.7649 23.0537 32.1899 22.3338 33.3669 22.3338H35.615V23.3312H33.5551C33.3505 23.3312 33.2203 23.3391 33.1058 23.4128C32.9835 23.4865 32.9341 23.601 32.9341 23.7476C32.9341 23.9272 33.0407 24.0417 33.1795 24.0989C33.294 24.1397 33.4249 24.1562 33.6131 24.1562L34.2177 24.1726C34.8474 24.1899 35.2645 24.2957 35.5178 24.5498ZM25.397 24.2636C25.2495 24.3538 25.0621 24.3616 24.841 24.3616H23.4758V23.3069H24.8575C25.0535 23.3069 25.2582 23.3148 25.3891 23.3885C25.5365 23.4622 25.6181 23.6088 25.6181 23.8135C25.6259 24.0103 25.5358 24.1734 25.397 24.2636ZM26.0752 24.8438C26.3285 24.934 26.5332 25.0971 26.6234 25.2359C26.7786 25.4649 26.8029 25.6774 26.8115 26.0945V27.0269H25.6832V26.438C25.6832 26.1518 25.7075 25.7346 25.5036 25.5221C25.3397 25.3504 25.0864 25.3175 24.6779 25.3175H23.4758V27.0339H22.3475V22.3417H24.939C25.5028 22.3417 25.92 22.366 26.2877 22.562C26.639 22.7745 26.868 23.0686 26.868 23.608C26.8688 24.3451 26.3701 24.7294 26.0752 24.8438ZM27.4898 22.3338H31.2341V23.3069H28.6096V24.1569H31.1768V25.1136H28.6096V26.0459L31.2341 26.0538V27.0269H27.4898V22.3338ZM19.9198 24.5004H18.473V23.3069H19.9362C20.3448 23.3069 20.6231 23.4708 20.6231 23.8794C20.6231 24.2879 20.3526 24.5004 19.9198 24.5004ZM17.3525 26.6011L15.6274 24.6878L17.3525 22.8404V26.6011ZM12.9057 26.0459H10.151V25.1136H12.6116V24.1569H10.151V23.3069H12.9629L14.1893 24.6721L12.9057 26.0459ZM21.8244 23.8794C21.8244 25.1873 20.8513 25.4492 19.8704 25.4492H18.4723V27.0269H16.2892L14.9076 25.4735L13.4687 27.0269H9.02968V22.3346H13.5424L14.924 23.8715L16.3543 22.3346H19.9347C20.827 22.3338 21.8244 22.5793 21.8244 23.8794Z" fill="#00ACEC"/>
<rect y="0.000366211" width="39.9996" height="39.9996" rx="6" fill="#D9D9D9"/>
<rect y="0.000366211" width="39.9996" height="39.9996" rx="6" fill="#00ACEC"/>
<g clip-path="url(#clip0_162_10499)">
<path d="M28.1713 13.2761C27.8884 13.057 27.5677 12.8918 27.2252 12.7886C26.9516 12.7018 26.6663 12.6579 26.3793 12.6586H26.3378C25.9649 12.664 25.2689 12.7534 24.8021 13.2995C24.6966 13.4259 24.623 13.5757 24.5875 13.7364C24.552 13.8972 24.5557 14.0641 24.5981 14.2231C24.6291 14.3515 24.691 14.4704 24.7783 14.5695C24.8656 14.6686 24.9757 14.7449 25.0992 14.7918C25.0992 14.7918 25.1786 14.8207 25.305 14.8442C25.2689 14.9146 25.1822 15.0374 25.1822 15.0374C25.0206 15.2766 24.6622 15.5899 23.6764 15.5899H23.6195C23.0977 15.5556 22.6662 15.4192 22.1606 14.7638C21.8474 14.3576 21.6885 13.6742 21.665 12.5502C21.6452 11.9869 21.5684 11.4985 21.4339 11.1058C21.3436 10.844 21.1333 10.5678 20.9311 10.436C20.7388 10.3037 20.5276 10.2014 20.3046 10.1326C19.9678 10.0243 19.539 10.0062 19.2176 10.0008C18.8005 9.9918 18.5703 10.0875 18.425 10.2644C18.4006 10.2942 18.3961 10.3096 18.3636 10.306C18.2878 10.3005 18.118 10.3005 18.0675 10.3005C17.8292 10.3005 17.6179 10.3394 17.4166 10.3818C16.9923 10.4721 16.7296 10.6481 16.4967 10.8359C16.3883 10.9217 16.1834 11.1654 16.1365 11.4254C16.1158 11.5138 16.1129 11.6055 16.1279 11.6951C16.143 11.7847 16.1756 11.8703 16.224 11.9472C16.3504 11.8136 16.5617 11.7089 16.9607 11.7071C17.4058 11.7053 18.016 11.9093 18.23 12.2559C18.5333 12.7498 18.4737 13.1497 18.4096 13.6254C18.2444 14.8415 17.7958 15.4743 16.8 15.6142C16.6276 15.6377 16.457 15.6504 16.2945 15.6504C15.5939 15.6504 15.0847 15.4265 14.8229 15.004C14.7898 14.9572 14.7631 14.9062 14.7435 14.8523C14.7435 14.8523 14.822 14.8334 14.8906 14.8018C15.1561 14.6754 15.3547 14.4912 15.4269 14.205C15.5081 13.8863 15.4305 13.5478 15.2193 13.2959C14.8446 12.8716 14.3246 12.6568 13.6728 12.6568C13.3117 12.6568 12.9912 12.7254 12.7863 12.7832C11.9666 13.0143 11.3121 13.6381 10.7876 14.6898C10.4156 15.4337 10.1556 16.4159 10.0563 17.4586C9.95701 18.4787 10.0058 19.3409 10.0735 20.1209C10.1854 21.4182 10.4012 22.1954 10.7126 23.0278C11.0855 24.0399 11.5729 25.0062 12.1652 25.9076C12.2464 25.8228 12.3006 25.7623 12.4432 25.6205C12.613 25.449 13.0968 24.8144 13.2341 24.6185C13.4056 24.3747 13.6945 23.9152 13.8335 23.583L13.9689 23.6904C14.1134 23.8051 14.1964 24.0046 14.1937 24.2249C14.191 24.419 14.1459 24.6437 14.0276 25.0572C13.8549 25.6294 13.6174 26.1801 13.3198 26.6984C13.1492 27.0063 13.0761 27.1571 13.1402 27.2257C13.1537 27.2392 13.1745 27.2527 13.1943 27.2491C13.2991 27.2491 13.5013 27.1435 13.7225 26.9747C13.9229 26.8212 14.4564 26.368 15.101 25.4626C15.6085 24.7469 16.0474 23.9848 16.4118 23.1867C16.5201 23.2282 16.642 23.2779 16.698 23.3907C16.7751 23.5482 16.8004 23.7262 16.7702 23.899C16.7115 24.3856 16.4281 25.1204 16.2015 25.6503C15.8178 26.5513 15.1109 27.5597 14.5873 28.2476C14.5675 28.2747 14.4402 28.4254 14.4194 28.4525C15.2319 29.1675 16.1744 29.8563 17.134 30.3808C17.7885 30.7492 19.1228 31.4299 20.0075 31.6664C20.8923 31.4299 22.2265 30.7492 22.882 30.3808C23.8525 29.8384 24.7615 29.1925 25.593 28.4543C25.5478 28.3857 25.4756 28.3117 25.4278 28.2467C24.9024 27.5579 24.1955 26.5486 23.8118 25.6512C23.5861 25.1186 23.3036 24.3828 23.2449 23.8999C23.2196 23.7004 23.2431 23.5234 23.3171 23.3898C23.3469 23.3013 23.5645 23.193 23.6033 23.1858C23.9689 23.9838 24.404 24.7476 24.9141 25.4626C25.5596 26.368 26.0931 26.8221 26.2926 26.9738C26.5165 27.1462 26.7142 27.2482 26.8216 27.2482C26.8357 27.2492 26.8497 27.2453 26.8614 27.2374C26.9462 27.1751 26.8767 27.0262 26.6962 26.7012C26.3997 26.1807 26.1618 25.6291 25.9866 25.0563C25.8692 24.6446 25.8241 24.419 25.8223 24.2258C25.8187 24.0037 25.9017 23.8051 26.0462 23.6895L26.1816 23.583C26.3215 23.9197 26.633 24.4126 26.7819 24.6185C26.9173 24.8135 27.4003 25.4481 27.5727 25.6205C27.7136 25.7632 27.7714 25.821 27.8508 25.9094C28.4432 25.008 28.9305 24.0418 29.3034 23.0296C29.613 22.1963 29.8297 21.4191 29.9416 20.1209C30.0093 19.3445 30.0572 18.4869 29.9597 17.4595C29.8685 16.452 29.5949 15.4156 29.2284 14.6898C29.0036 14.2475 28.6822 13.6859 28.1713 13.2761Z" fill="white"/>
</g>
<defs>
<clipPath id="clip0_162_10499">
<rect width="21.6665" height="21.6665" fill="white" transform="translate(9.99991 10.0002)"/>
</clipPath>
</defs>
</svg>
