<svg width="40" height="40" viewBox="0 0 40 40" fill="none" xmlns="http://www.w3.org/2000/svg">
<rect y="-0.000366211" width="39.9996" height="40.0007" rx="6" fill="#D9D9D9"/>
<rect y="-0.000366211" width="39.9996" height="40.0007" rx="6" fill="#F1F1F1"/>
<path d="M3.59686 16.9223L2.82841 15.0506L2.0678 16.9223M20.5115 16.1782C20.3562 16.2684 20.1766 16.2762 19.9555 16.2762H18.5982V15.2301H19.9798C20.1759 15.2301 20.3805 15.238 20.5115 15.3117C20.6589 15.3768 20.7483 15.5242 20.7483 15.7289C20.7483 15.9327 20.6581 16.1045 20.5115 16.1782ZM30.2395 16.9223L29.4632 15.0506L28.6947 16.9223H30.2395ZM12.1157 18.9494H10.963L10.9552 15.2701L9.32812 18.9494H8.34716L6.71224 15.2701V18.9494H4.43119L3.99756 17.9033H1.66789L1.23426 18.9494H0.0164974L2.01918 14.257H3.68704L5.60033 18.6961V14.257H7.43129L8.90311 17.4375L10.2518 14.257H12.1157V18.9494ZM16.6935 18.9494H12.9493V14.257H16.6935V15.238H14.069V16.0802H16.6363V17.0368H14.0776V17.977H16.7021V18.9502H16.6935V18.9494ZM21.9825 15.5156C21.9825 16.2676 21.4838 16.6518 21.1897 16.7663C21.4352 16.8565 21.6477 17.0282 21.7457 17.1584C21.901 17.3952 21.9339 17.5999 21.9339 18.017V18.9408H20.8055L20.7977 18.3519C20.7977 18.0656 20.822 17.6649 20.6181 17.436C20.4542 17.2721 20.201 17.2313 19.8003 17.2313H18.5982V18.94H17.4784V14.2554H20.0614C20.6338 14.2554 21.0588 14.2719 21.4187 14.4758C21.77 14.6898 21.9825 14.9925 21.9825 15.5156ZM23.7735 18.9494H22.6286V14.257H23.7735V18.9494ZM37.0575 18.9494H35.4712L33.3454 15.4262V18.9494H31.0644L30.6307 17.9033H28.3011L27.8761 18.9494H26.5595C26.0114 18.9494 25.3253 18.8271 24.9324 18.4342C24.5404 18.0335 24.3357 17.494 24.3357 16.644C24.3357 15.9492 24.458 15.3117 24.9403 14.813C25.3002 14.4366 25.8726 14.2648 26.6411 14.2648H27.7287V15.2701H26.6662C26.2576 15.2701 26.0287 15.3274 25.7997 15.5477C25.6115 15.7438 25.4805 16.1202 25.4805 16.6103C25.4805 17.1168 25.5786 17.4767 25.7911 17.7136C25.9628 17.9018 26.2819 17.959 26.576 17.959H27.0825L28.6602 14.2719H30.3445L32.2414 18.711V14.2554H33.95L35.9205 17.5254V14.2554H37.0732L37.0575 18.9494ZM3.05176e-05 19.8653H1.91332L2.34695 18.8192H3.31144L3.74507 19.8653H7.51363V19.0725L7.84845 19.8739H9.80252L10.1373 19.0647V19.8739H19.5054L19.4976 18.1652H19.6771C19.8081 18.1731 19.841 18.1817 19.841 18.3942V19.8818H24.6886V19.4811C25.0806 19.6936 25.686 19.8818 26.4874 19.8818H28.523L28.9566 18.8357H29.9211L30.3461 19.8818H34.2786V18.8929L34.8753 19.8818H38.0557V13.3333H34.9411V14.1096L34.5075 13.3333H31.3114V14.1096L30.9107 13.3333H26.594C25.875 13.3333 25.2367 13.4313 24.7223 13.7175V13.3333H21.7386V13.7175C21.4117 13.4313 20.9702 13.3333 20.4715 13.3333H9.57277L8.84509 15.0255L8.0931 13.3333H4.66015V14.1096L4.28377 13.3333H1.35737L3.05176e-05 16.4315V19.8653Z" fill="#F1F1F1"/>
<path d="M39.9897 23.3312H37.9463C37.7416 23.3312 37.6028 23.339 37.4883 23.4127C37.3739 23.4864 37.3245 23.6009 37.3245 23.7476C37.3245 23.9271 37.4225 24.0416 37.5699 24.0989C37.6844 24.1396 37.8153 24.1561 38.0035 24.1561L38.6081 24.1726C39.2213 24.189 39.6298 24.2949 39.8831 24.549C39.9325 24.5819 39.9568 24.6227 39.9897 24.6635M39.9897 26.4302C39.72 26.8309 39.1884 27.0269 38.4693 27.0269H36.3027V26.0216H38.4607C38.6732 26.0216 38.8284 25.9973 38.9186 25.9071C39.0002 25.8334 39.0496 25.7276 39.0496 25.6045C39.0496 25.4657 38.9923 25.359 38.9108 25.2939C38.8292 25.2202 38.7147 25.1873 38.5187 25.1873C37.464 25.1543 36.1483 25.2202 36.1483 23.7319C36.1483 23.0536 36.5819 22.3337 37.7589 22.3337H39.9905V21.4014H37.9141C37.2845 21.4014 36.8352 21.5488 36.5082 21.7856V21.4014H33.4344C32.9435 21.4014 32.3632 21.5237 32.0935 21.7856V21.4014H26.6077V21.7856C26.174 21.4665 25.4385 21.4014 25.0951 21.4014H21.4818V21.7856C21.1383 21.4508 20.3699 21.4014 19.9041 21.4014H15.8572L14.9334 22.4067L14.067 21.4014H8.01736V27.9499H13.9525L14.9091 26.9281L15.8085 27.9499H19.4626V26.4129H19.8225C20.3048 26.4208 20.8772 26.4051 21.3838 26.1839V27.9499H24.4003V26.2412H24.5477C24.7359 26.2412 24.7524 26.249 24.7524 26.4372V27.9499H33.9166C34.4969 27.9499 35.1101 27.8025 35.4457 27.5327V27.9499H38.3564C38.961 27.9499 39.5498 27.8683 39.9999 27.6472V26.4294H39.9897V26.4302ZM35.5178 24.5498C35.7381 24.7787 35.8526 25.065 35.8526 25.5472C35.8526 26.5611 35.223 27.0269 34.0868 27.0269H31.9037V26.0216H34.0781C34.2906 26.0216 34.4381 25.9973 34.5361 25.9071C34.6098 25.8334 34.667 25.7276 34.667 25.6045C34.667 25.4657 34.6098 25.359 34.5282 25.2939C34.4467 25.2202 34.3236 25.1873 34.1275 25.1873C33.0815 25.1543 31.7649 25.2202 31.7649 23.7319C31.7649 23.0536 32.1899 22.3337 33.3669 22.3337H35.615V23.3312H33.5551C33.3505 23.3312 33.2203 23.339 33.1058 23.4127C32.9835 23.4864 32.9341 23.6009 32.9341 23.7476C32.9341 23.9271 33.0407 24.0416 33.1795 24.0989C33.294 24.1396 33.4249 24.1561 33.6131 24.1561L34.2177 24.1726C34.8474 24.1898 35.2645 24.2957 35.5178 24.5498ZM25.397 24.2635C25.2495 24.3537 25.0621 24.3616 24.841 24.3616H23.4758V23.3069H24.8575C25.0535 23.3069 25.2582 23.3147 25.3891 23.3884C25.5365 23.4621 25.6181 23.6088 25.6181 23.8134C25.6259 24.0103 25.5358 24.1734 25.397 24.2635ZM26.0752 24.8438C26.3285 24.934 26.5332 25.0971 26.6234 25.2359C26.7786 25.4649 26.8029 25.6774 26.8115 26.0946V27.0269H25.6832V26.438C25.6832 26.1518 25.7075 25.7346 25.5036 25.5221C25.3397 25.3504 25.0864 25.3175 24.6779 25.3175H23.4758V27.034H22.3475V22.3416H24.939C25.5028 22.3416 25.92 22.3659 26.2877 22.5619C26.639 22.7744 26.868 23.0685 26.868 23.608C26.8688 24.3451 26.3701 24.7293 26.0752 24.8438ZM27.4898 22.3337H31.2341V23.3069H28.6096V24.1569H31.1768V25.1136H28.6096V26.0459L31.2341 26.0538V27.0269H27.4898V22.3337ZM19.9198 24.5004H18.473V23.3069H19.9362C20.3448 23.3069 20.6231 23.4708 20.6231 23.8793C20.6231 24.2879 20.3526 24.5004 19.9198 24.5004ZM17.3525 26.6011L15.6274 24.6878L17.3525 22.8403V26.6011ZM12.9057 26.0459H10.151V25.1136H12.6116V24.1569H10.151V23.3069H12.9629L14.1893 24.6721L12.9057 26.0459ZM21.8244 23.8793C21.8244 25.1873 20.8513 25.4492 19.8704 25.4492H18.4723V27.0269H16.2892L14.9076 25.4735L13.4687 27.0269H9.02968V22.3345H13.5424L14.924 23.8715L16.3543 22.3345H19.9347C20.827 22.3337 21.8244 22.5792 21.8244 23.8793Z" fill="#F1F1F1"/>
<rect y="-0.000366211" width="39.9996" height="40.0007" rx="6" fill="#748BB3"/>
<g clip-path="url(#clip0_162_10430)">
<mask id="mask0_162_10430" style="mask-type:luminance" maskUnits="userSpaceOnUse" x="0" y="14" width="56" height="14">
<path d="M0.497192 27.5643H55.9497V14.3639H0.497192V27.5643Z" fill="white"/>
</mask>
<g mask="url(#mask0_162_10430)">
<path d="M26.8019 23.9443C26.7927 23.9491 26.7821 23.9546 26.7716 23.9591L24.1234 25.0327L21.8938 26.2886C23.8451 25.5097 25.4327 24.8236 26.9355 24.1159C26.8881 24.0606 26.8439 24.0037 26.8019 23.9443Z" fill="white"/>
<path d="M36.997 16.4071L34.531 18.4682L32.1192 21.1274C32.1466 21.2237 32.1689 21.3219 32.1846 21.4247C32.1926 21.4211 32.1996 21.4163 32.208 21.4118C36.0777 19.3095 38.1769 17.9897 36.997 16.4071Z" fill="white"/>
</g>
<path d="M11.7767 17.1568L11.6193 17.1872C11.5864 17.1914 11.566 17.2192 11.5714 17.2479C11.5769 17.277 11.6072 17.2951 11.6401 17.2909L11.7953 17.2638C17.3695 16.3854 28.9608 15.168 31.4552 17.3565C32.216 18.0239 32.0341 18.8848 31.1517 19.8992C31.6272 20.1691 31.9665 20.595 32.1195 21.1273C34.9302 19.4727 36.9881 17.8807 37.055 16.7699V16.6607C37.0422 16.4535 36.9542 16.2645 36.7825 16.0968C35.9798 15.3134 33.752 15.0161 30.8819 15.0161C24.9618 15.0161 16.3071 16.281 11.7767 17.1568ZM26.5399 23.4341C24.9808 24.4111 23.1325 25.4375 21.145 26.5153L21.0669 26.5553C21.0395 26.5715 21.0333 26.6048 21.0526 26.6277C21.0705 26.652 21.1078 26.6578 21.1348 26.6407L21.2013 26.6097C22.8871 25.8314 24.8227 24.9068 26.7718 23.959C26.7853 23.9534 26.793 23.9493 26.8017 23.9441C26.6947 23.7887 26.6071 23.618 26.5454 23.4309C26.5435 23.4319 26.5421 23.4325 26.5399 23.4341Z" fill="url(#paint0_linear_162_10430)"/>
<path d="M37.8742 23.5513L37.9925 23.6221C37.6942 24.1608 37.0854 24.5948 36.3699 24.5948C35.7856 24.5948 35.3053 24.2503 35.2805 23.6027C35.2327 22.4438 36.4605 21.3663 37.4659 21.3663C37.8965 21.3663 38.2964 21.5337 38.3139 21.9445C38.3515 22.8659 36.8881 23.1477 35.9236 23.1671C35.8933 23.263 35.882 23.3603 35.8871 23.508C35.9032 23.89 36.165 24.2116 36.7052 24.2116C37.1716 24.2116 37.6387 23.8787 37.8742 23.5513ZM37.7431 21.8863C37.7347 21.6685 37.6116 21.5221 37.3563 21.5221C36.7435 21.5221 36.0924 22.5841 35.9799 23.0126C36.9853 23.0126 37.7672 22.4826 37.7431 21.8863Z" fill="white"/>
<path d="M31.8898 21.8527C31.9935 21.8405 32.1513 21.8272 32.2229 21.8272C32.3331 21.8272 32.4365 21.8459 32.4423 21.9419C32.4438 21.9988 32.3266 22.4102 32.3025 22.5052L32.0695 23.414C31.9756 23.7873 31.8737 24.1764 31.7828 24.4843H32.381L32.7181 23.0433C33.7447 22.0967 34.1402 21.7881 34.3823 21.7881C34.4919 21.7881 34.5668 21.8385 34.5722 21.9542C34.5781 22.1216 34.4616 22.4994 34.4214 22.608L34.077 23.658C33.9989 23.8946 33.9412 24.1075 33.9466 24.2601C33.9576 24.4902 34.1154 24.5923 34.3487 24.5923C34.787 24.5923 35.1043 24.1896 35.3815 23.7931L35.2924 23.6774C35.1803 23.8367 34.9287 24.1699 34.7238 24.1699C34.6588 24.1699 34.5978 24.1321 34.5956 24.0361C34.5898 23.913 34.6482 23.7301 34.6891 23.6076L35.0704 22.3766C35.1723 22.0376 35.2216 21.8191 35.219 21.7037C35.2095 21.474 35.0576 21.366 34.8261 21.366C34.432 21.366 33.9083 21.621 32.8006 22.7492H32.7849L32.9244 22.1989C33 21.8977 33.0745 21.5835 33.1465 21.366C32.7641 21.4892 32.2239 21.622 31.8847 21.6795L31.8898 21.8527Z" fill="white"/>
<path d="M26.7334 22.7559C26.6775 21.3148 27.9529 19.8412 29.8067 19.8412C31.0462 19.8412 31.8566 20.5722 31.9015 21.691C31.961 23.2112 30.7697 24.6067 28.8294 24.6067C27.5902 24.6067 26.7787 23.877 26.7334 22.7559ZM27.5405 22.8008C27.5723 23.6452 28.1756 24.3368 28.963 24.3368C30.4892 24.3368 31.1378 22.679 31.0929 21.5711C31.0611 20.7247 30.441 20.0341 29.6547 20.0341C28.3433 20.0341 27.4949 21.6862 27.5405 22.8008Z" fill="white"/>
<path d="M25.7837 23.6233L24.2619 23.6252L25.0266 19.8515L26.5098 19.8881L25.7837 23.6233Z" fill="white"/>
<path d="M24.2667 21.4934C24.2608 21.6265 24.2342 21.7435 24.1933 21.9445L23.9219 23.2999C23.8985 23.4189 23.9486 23.5126 24.0735 23.5795L24.0651 23.626L22.5053 23.6289L22.4925 23.2838C22.2653 23.4063 21.9892 23.5081 21.7431 23.5669C21.4944 23.6254 21.2942 23.6483 20.9926 23.6483C20.4886 23.6483 20.2015 23.604 20.0018 23.4483C19.7987 23.288 19.7001 23.1833 19.7118 22.9645C19.7173 22.8371 19.7914 22.6746 19.8991 22.5628C20.0083 22.4464 20.1551 22.3724 20.3158 22.3055C20.4773 22.2383 20.6668 22.1889 20.9396 22.1485C21.2175 22.1103 21.6021 22.0686 22.1174 22.0308C22.3851 22.0114 22.5505 21.9571 22.6269 21.9313C22.7361 21.8935 22.7788 21.8518 22.7949 21.7745C22.8223 21.6378 22.7737 21.5567 22.5659 21.5196C22.0009 21.421 20.9498 21.5832 20.4064 21.7028L20.7004 20.998C21.4195 20.9052 22.0882 20.8454 22.7952 20.8454C23.9175 20.8454 24.2754 21.1305 24.2667 21.4934ZM22.6565 22.3815C22.5893 22.4015 22.5027 22.4235 22.3972 22.4448C22.292 22.4671 22.0984 22.4949 21.8165 22.5356C21.624 22.5628 21.4878 22.598 21.414 22.6468C21.3424 22.6933 21.2997 22.7512 21.2844 22.821C21.269 22.8953 21.2997 22.9558 21.3698 23.001C21.4451 23.0466 21.5703 23.0689 21.7464 23.0689C21.876 23.0689 22.0038 23.0517 22.1291 23.0175C22.2569 22.9793 22.3621 22.9315 22.445 22.8685C22.5027 22.8233 22.5465 22.7635 22.5783 22.6933C22.5969 22.6478 22.6229 22.5437 22.6565 22.3815Z" fill="white"/>
<path d="M18.1732 20.9045L18.2805 20.3535L19.8425 20.053L19.6767 20.9045H20.4422L20.2972 21.4494L19.5551 21.4478L19.1037 23.6234C19.1037 23.6234 17.5983 23.6147 17.5932 23.6234L18.0421 21.453H17.4749L17.5903 20.9045H18.1732Z" fill="white"/>
<path d="M15.9383 20.2938C15.9825 20.0714 16.3795 19.8914 16.8229 19.8914C17.2669 19.8914 17.5909 20.0714 17.5478 20.2938C17.5003 20.5164 17.1055 20.6974 16.6603 20.6974C16.2155 20.6974 15.8934 20.5164 15.9383 20.2938ZM15.3138 23.6254L15.8554 20.9201H17.3491L16.8079 23.6254H15.3138Z" fill="white"/>
<path d="M10.6168 24.5587L11.3443 20.9337H12.6558L12.5546 21.3965C12.6682 21.2581 12.8497 21.1447 13.1009 21.0523C13.3544 20.9608 13.6404 20.8929 13.949 20.8929C14.2912 20.8929 14.503 20.9091 14.7594 21.0264C15.0139 21.1447 15.191 21.3163 15.2882 21.5396C15.3871 21.7603 15.4069 22.0076 15.3543 22.2761C15.2652 22.7228 15.0187 23.0757 14.6155 23.3339C14.2145 23.5927 13.854 23.6609 13.3398 23.6626C13.1572 23.6626 13.0053 23.6457 12.8789 23.6183C12.7547 23.5898 12.6558 23.5553 12.5812 23.5126C12.5093 23.4699 12.433 23.4105 12.3344 23.3161L12.0904 24.5587H10.6168ZM13.3376 21.5542C13.1418 21.5542 12.964 21.6072 12.8069 21.7119C12.6506 21.8172 12.5517 21.9701 12.5119 22.175C12.4644 22.4112 12.4918 22.5806 12.598 22.6849C12.7043 22.7893 12.8581 22.8417 13.0593 22.8417C13.1952 22.8417 13.3369 22.82 13.4399 22.7741C13.5677 22.7144 13.6557 22.6513 13.7328 22.5515C13.8142 22.4468 13.8686 22.3311 13.8967 22.1953C13.9391 21.9817 13.9033 21.8217 13.7912 21.7157C13.6824 21.6078 13.5326 21.5542 13.3376 21.5542Z" fill="white"/>
<mask id="mask1_162_10430" style="mask-type:luminance" maskUnits="userSpaceOnUse" x="1" y="15" width="54" height="12">
<path d="M1.68484 26.6508H54.9429V15.0161H1.68484V26.6508Z" fill="white"/>
</mask>
<g mask="url(#mask1_162_10430)">
<path d="M10.7904 21.4892C10.7842 21.6211 10.7579 21.7374 10.7181 21.9391L10.4453 23.2932C10.4216 23.4128 10.472 23.5081 10.5987 23.5721L10.5899 23.6254L9.02904 23.6235L9.01589 23.2783C8.78764 23.4005 8.51373 23.5026 8.26575 23.5624C8.01851 23.6183 7.81837 23.6432 7.51817 23.6432C7.01455 23.6432 6.72457 23.5976 6.5259 23.4428C6.32284 23.2828 6.22497 23.1772 6.23519 22.9581C6.24286 22.8317 6.31663 22.6695 6.424 22.5564C6.53174 22.4413 6.67892 22.366 6.83961 22.3001C7.0003 22.2316 7.18948 22.1824 7.46522 22.1446C7.74168 22.1042 8.12551 22.0645 8.64082 22.0267C8.91035 22.0066 9.07579 21.9517 9.15358 21.9239C9.26095 21.8871 9.30295 21.847 9.31901 21.7688C9.34787 21.6295 9.29747 21.5503 9.08857 21.5138C8.52688 21.4155 7.47325 21.5768 6.92945 21.6974L7.22527 20.9928C7.94072 20.9011 8.6127 20.8409 9.31974 20.8409C10.4424 20.8409 10.8021 21.1244 10.7904 21.4892ZM9.17987 22.3757C9.11377 22.3973 9.02794 22.4184 8.92203 22.4387C8.81612 22.46 8.6222 22.4904 8.34172 22.5292C8.14889 22.5564 8.01412 22.5925 7.93816 22.6407C7.86512 22.6889 7.82239 22.7461 7.80997 22.8155C7.795 22.8892 7.82239 22.9487 7.8947 22.9955C7.96884 23.0414 8.09374 23.065 8.26831 23.065C8.39942 23.065 8.52834 23.046 8.65287 23.0111C8.77924 22.9749 8.88551 22.9248 8.96768 22.8627C9.02794 22.8168 9.0714 22.759 9.10318 22.6889C9.12144 22.6423 9.14773 22.5386 9.17987 22.3757Z" fill="white"/>
<path d="M6.03124 22.6526C5.54405 22.7379 5.27051 22.7709 4.79062 22.7709C4.07664 22.7709 3.5091 22.4571 3.53978 21.8822C3.56169 21.4995 4.07408 20.6916 5.37642 20.6916C5.78655 20.6916 6.1072 20.7559 6.53815 20.9734L6.72696 20.0343C6.14116 19.8374 5.75258 19.8087 5.25005 19.8129C3.54343 19.8294 1.90328 20.5164 1.70023 21.9129C1.49315 23.3319 3.4514 23.6884 4.32169 23.6852C4.82349 23.6835 5.34537 23.6661 5.8322 23.6208L6.03124 22.6526Z" fill="white"/>
</g>
</g>
<defs>
<linearGradient id="paint0_linear_162_10430" x1="14.8142" y1="22.6506" x2="33.8775" y2="11.1961" gradientUnits="userSpaceOnUse">
<stop stop-color="#B5121B"/>
<stop offset="0.699997" stop-color="#BE3D2E"/>
<stop offset="1" stop-color="#F6E2DA"/>
</linearGradient>
<clipPath id="clip0_162_10430">
<rect width="36.6663" height="11.6669" fill="white" transform="translate(1.66666 14.9999)"/>
</clipPath>
</defs>
</svg>
