<svg width="40" height="40" viewBox="0 0 40 40" fill="none" xmlns="http://www.w3.org/2000/svg">
<rect width="40" height="40" rx="6" fill="#F1F1F1"/>
<path d="M10.4592 31.588V30.0429C10.4592 29.4506 10.0987 29.0644 9.48066 29.0644C9.17165 29.0644 8.83688 29.1674 8.60512 29.5021C8.42487 29.2189 8.16736 29.0644 7.78109 29.0644C7.52358 29.0644 7.26607 29.1416 7.06006 29.4249V29.1159H6.51929V31.588H7.06006V30.2232C7.06006 29.7854 7.29182 29.5794 7.65233 29.5794C8.01285 29.5794 8.19311 29.8111 8.19311 30.2232V31.588H8.73388V30.2232C8.73388 29.7854 8.99139 29.5794 9.32615 29.5794C9.68667 29.5794 9.86693 29.8111 9.86693 30.2232V31.588H10.4592ZM18.4678 29.1159H17.5922V28.3691H17.0515V29.1159H16.5622V29.6051H17.0515V30.7382C17.0515 31.3047 17.2832 31.6395 17.9013 31.6395C18.133 31.6395 18.3905 31.5622 18.5708 31.4592L18.4163 30.9957C18.2618 31.0987 18.0815 31.1245 17.9528 31.1245C17.6953 31.1245 17.5922 30.9699 17.5922 30.7124V29.6051H18.4678V29.1159ZM23.0515 29.0644C22.7425 29.0644 22.5365 29.2189 22.4077 29.4249V29.1159H21.8669V31.588H22.4077V30.1974C22.4077 29.7854 22.588 29.5536 22.9227 29.5536C23.0257 29.5536 23.1545 29.5794 23.2575 29.6051L23.412 29.0901C23.309 29.0644 23.1545 29.0644 23.0515 29.0644ZM16.1244 29.3219C15.8669 29.1416 15.5064 29.0644 15.1201 29.0644C14.5021 29.0644 14.0901 29.3734 14.0901 29.8626C14.0901 30.2747 14.3991 30.5064 14.9399 30.5837L15.1974 30.6094C15.4807 30.6609 15.6352 30.7382 15.6352 30.8669C15.6352 31.0472 15.4292 31.176 15.0686 31.176C14.7081 31.176 14.4249 31.0472 14.2446 30.9184L13.9871 31.3305C14.2704 31.5365 14.6566 31.6395 15.0429 31.6395C15.7639 31.6395 16.1759 31.3047 16.1759 30.8412C16.1759 30.4034 15.8412 30.1717 15.3262 30.0944L15.0686 30.0687C14.8369 30.0429 14.6566 29.9914 14.6566 29.8369C14.6566 29.6566 14.8369 29.5536 15.1201 29.5536C15.4292 29.5536 15.7382 29.6824 15.8927 29.7596L16.1244 29.3219ZM30.4935 29.0644C30.1845 29.0644 29.9785 29.2189 29.8498 29.4249V29.1159H29.309V31.588H29.8498V30.1974C29.8498 29.7854 30.03 29.5536 30.3648 29.5536C30.4678 29.5536 30.5965 29.5794 30.6995 29.6051L30.8541 29.0901C30.751 29.0644 30.5965 29.0644 30.4935 29.0644ZM23.5922 30.3519C23.5922 31.0987 24.1073 31.6395 24.9056 31.6395C25.2661 31.6395 25.5236 31.5622 25.7811 31.3562L25.5236 30.9184C25.3176 31.0729 25.1116 31.1502 24.8798 31.1502C24.442 31.1502 24.133 30.8412 24.133 30.3519C24.133 29.8884 24.442 29.5794 24.8798 29.5536C25.1116 29.5536 25.3176 29.6309 25.5236 29.7854L25.7811 29.3476C25.5236 29.1416 25.2661 29.0644 24.9056 29.0644C24.1073 29.0644 23.5922 29.6051 23.5922 30.3519ZM28.588 30.3519V29.1159H28.0472V29.4249C27.8669 29.1931 27.6094 29.0644 27.2747 29.0644C26.5794 29.0644 26.0386 29.6051 26.0386 30.3519C26.0386 31.0987 26.5794 31.6395 27.2747 31.6395C27.6352 31.6395 27.8927 31.5107 28.0472 31.279V31.588H28.588V30.3519ZM26.6051 30.3519C26.6051 29.9142 26.8884 29.5536 27.3519 29.5536C27.7897 29.5536 28.0987 29.8884 28.0987 30.3519C28.0987 30.7897 27.7897 31.1502 27.3519 31.1502C26.8884 31.1245 26.6051 30.7897 26.6051 30.3519ZM20.1416 29.0644C19.4206 29.0644 18.9056 29.5794 18.9056 30.3519C18.9056 31.1245 19.4206 31.6395 20.1674 31.6395C20.5279 31.6395 20.8884 31.5365 21.1716 31.3047L20.9141 30.9184C20.7081 31.0729 20.4506 31.176 20.1931 31.176C19.8583 31.176 19.5236 31.0214 19.4463 30.5837H21.2747V30.3777C21.3004 29.5794 20.8369 29.0644 20.1416 29.0644ZM20.1416 29.5279C20.4764 29.5279 20.7081 29.7339 20.7596 30.1202H19.4721C19.5236 29.7854 19.7553 29.5279 20.1416 29.5279ZM33.5579 30.3519V28.1373H33.0171V29.4249C32.8369 29.1931 32.5794 29.0644 32.2446 29.0644C31.5493 29.0644 31.0086 29.6051 31.0086 30.3519C31.0086 31.0987 31.5493 31.6395 32.2446 31.6395C32.6051 31.6395 32.8626 31.5107 33.0171 31.279V31.588H33.5579V30.3519ZM31.5751 30.3519C31.5751 29.9142 31.8583 29.5536 32.3219 29.5536C32.7596 29.5536 33.0686 29.8884 33.0686 30.3519C33.0686 30.7897 32.7596 31.1502 32.3219 31.1502C31.8583 31.1245 31.5751 30.7897 31.5751 30.3519ZM13.4978 30.3519V29.1159H12.9571V29.4249C12.7768 29.1931 12.5193 29.0644 12.1845 29.0644C11.4892 29.0644 10.9485 29.6051 10.9485 30.3519C10.9485 31.0987 11.4892 31.6395 12.1845 31.6395C12.545 31.6395 12.8025 31.5107 12.9571 31.279V31.588H13.4978V30.3519ZM11.4892 30.3519C11.4892 29.9142 11.7725 29.5536 12.236 29.5536C12.6738 29.5536 12.9828 29.8884 12.9828 30.3519C12.9828 30.7897 12.6738 31.1502 12.236 31.1502C11.7725 31.1245 11.4892 30.7897 11.4892 30.3519Z" fill="#242424"/>
<path d="M24.0558 10.3434H15.9442V24.9185H24.0558V10.3434Z" fill="#FF5F00"/>
<path d="M16.4592 17.6309C16.4592 14.6695 17.8498 12.0429 19.9871 10.3433C18.4163 9.10725 16.4335 8.36047 14.2704 8.36047C9.14592 8.36047 5 12.5064 5 17.6309C5 22.7553 9.14592 26.9012 14.2704 26.9012C16.4335 26.9012 18.4163 26.1545 19.9871 24.9184C17.8498 23.2446 16.4592 20.5922 16.4592 17.6309Z" fill="#EB001B"/>
<path d="M35 17.6309C35 22.7553 30.8541 26.9012 25.7296 26.9012C23.5665 26.9012 21.5837 26.1545 20.0129 24.9184C22.176 23.2188 23.5408 20.5922 23.5408 17.6309C23.5408 14.6695 22.1502 12.0429 20.0129 10.3433C21.5837 9.10725 23.5665 8.36047 25.7296 8.36047C30.8541 8.36047 35 12.5321 35 17.6309Z" fill="#F79E1B"/>
</svg>
