<svg width="41" height="40" viewBox="0 0 41 40" fill="none" xmlns="http://www.w3.org/2000/svg">
<rect x="0.5" width="40" height="40" rx="16" fill="#E9FAEF"/>
<path d="M21.03 28.42H14.71C11.55 28.42 10.5 26.32 10.5 24.21V15.79C10.5 12.63 11.55 11.58 14.71 11.58H21.03C24.19 11.58 25.24 12.63 25.24 15.79V24.21C25.24 27.37 24.18 28.42 21.03 28.42Z" stroke="#22C55E" stroke-width="1.5" stroke-linecap="round" stroke-linejoin="round"/>
<path d="M28.02 25.1L25.24 23.15V16.84L28.02 14.89C29.38 13.94 30.5 14.52 30.5 16.19V23.81C30.5 25.48 29.38 26.06 28.02 25.1Z" stroke="#22C55E" stroke-width="1.5" stroke-linecap="round" stroke-linejoin="round"/>
<path d="M20 19C20.8284 19 21.5 18.3284 21.5 17.5C21.5 16.6716 20.8284 16 20 16C19.1716 16 18.5 16.6716 18.5 17.5C18.5 18.3284 19.1716 19 20 19Z" stroke="#22C55E" stroke-width="1.5" stroke-linecap="round" stroke-linejoin="round"/>
</svg>
